<?xml version="1.0" encoding="UTF-8" standalone="no"?>
<!-- Created with Inkscape (http://www.inkscape.org/) -->

<svg
   width="49.960903mm"
   height="49.960903mm"
   viewBox="0 0 49.960903 49.960903"
   version="1.1"
   id="svg1"
   xmlns:inkscape="http://www.inkscape.org/namespaces/inkscape"
   xmlns:sodipodi="http://sodipodi.sourceforge.net/DTD/sodipodi-0.dtd"
   xmlns="http://www.w3.org/2000/svg"
   xmlns:svg="http://www.w3.org/2000/svg">
  <sodipodi:namedview
     id="namedview1"
     pagecolor="#ffffff"
     bordercolor="#000000"
     borderopacity="0.25"
     inkscape:showpageshadow="2"
     inkscape:pageopacity="0.0"
     inkscape:pagecheckerboard="0"
     inkscape:deskcolor="#d1d1d1"
     inkscape:document-units="mm">
    <inkscape:page
       x="0"
       y="0"
       width="49.960903"
       height="49.960903"
       id="page2"
       margin="0"
       bleed="0" />
  </sodipodi:namedview>
  <defs
     id="defs1">
    <linearGradient
       id="swatch1"
       inkscape:swatch="solid">
      <stop
         style="stop-color:#000000;stop-opacity:1;"
         offset="0"
         id="stop1" />
    </linearGradient>
  </defs>
  <g
     inkscape:label="Calque 1"
     inkscape:groupmode="layer"
     id="layer1"
     transform="translate(-74.977976,-91.214883)">
    <circle
       style="fill:#000000;fill-opacity:0;stroke:#000000;stroke-width:2.265"
       id="path1"
       cx="99.958427"
       cy="116.19533"
       r="23.84795" />
    <path
       d="m 105.32244,125.29865 -1.98437,-5.61826 h -6.759281 l -2.00918,5.61826 h -2.331641 l 6.660059,-18.20664 h 2.108403 l 6.67246,18.20664 z m -2.71611,-7.66465 -1.83555,-5.25859 q -0.0744,-0.22324 -0.18603,-0.5457 -0.0992,-0.32246 -0.21084,-0.69453 -0.11163,-0.37207 -0.22325,-0.76895 -0.11162,-0.40928 -0.210836,-0.79375 -0.08682,0.38447 -0.198438,0.79375 -0.111621,0.40928 -0.223242,0.79375 -0.111621,0.37207 -0.223242,0.69453 -0.09922,0.31006 -0.173633,0.5209 l -1.79834,5.25859 z"
       id="text1"
       style="font-size:25.4px;stroke-width:2.265"
       aria-label="A" />
  </g>
</svg>
